SolveFromPy_states
version=1
nRows=4
nColumns=195
inDegrees=yes

# SIMM Motion File Header:
name SolveFromPy_states
datacolumns 195
datarows 4
otherdata 1
range 0.00000000 0.00672298
endheader
time	/jointset/ground_platform/platform_rx/value	/jointset/ground_platform/platform_rx/speed	/jointset/ground_platform/platform_ry/value	/jointset/ground_platform/platform_ry/speed	/jointset/ground_platform/platform_rz/value	/jointset/ground_platform/platform_rz/speed	/jointset/ground_platform/platform_ty/value	/jointset/ground_platform/platform_ty/speed	/jointset/ground_pelvis/pelvis_tilt/value	/jointset/ground_pelvis/pelvis_tilt/speed	/jointset/ground_pelvis/pelvis_list/value	/jointset/ground_pelvis/pelvis_list/speed	/jointset/ground_pelvis/pelvis_rotation/value	/jointset/ground_pelvis/pelvis_rotation/speed	/jointset/ground_pelvis/pelvis_tx/value	/jointset/ground_pelvis/pelvis_tx/speed	/jointset/ground_pelvis/pelvis_ty/value	/jointset/ground_pelvis/pelvis_ty/speed	/jointset/ground_pelvis/pelvis_tz/value	/jointset/ground_pelvis/pelvis_tz/speed	/jointset/hip_r/hip_flexion_r/value	/jointset/hip_r/hip_flexion_r/speed	/jointset/hip_r/hip_adduction_r/value	/jointset/hip_r/hip_adduction_r/speed	/jointset/hip_r/hip_rotation_r/value	/jointset/hip_r/hip_rotation_r/speed	/jointset/knee_r/knee_angle_r/value	/jointset/knee_r/knee_angle_r/speed	/jointset/ankle_r/ankle_angle_r/value	/jointset/ankle_r/ankle_angle_r/speed	/jointset/subtalar_r/subtalar_angle_r/value	/jointset/subtalar_r/subtalar_angle_r/speed	/jointset/mtp_r/mtp_angle_r/value	/jointset/mtp_r/mtp_angle_r/speed	/jointset/hip_l/hip_flexion_l/value	/jointset/hip_l/hip_flexion_l/speed	/jointset/hip_l/hip_adduction_l/value	/jointset/hip_l/hip_adduction_l/speed	/jointset/hip_l/hip_rotation_l/value	/jointset/hip_l/hip_rotation_l/speed	/jointset/knee_l/knee_angle_l/value	/jointset/knee_l/knee_angle_l/speed	/jointset/ankle_l/ankle_angle_l/value	/jointset/ankle_l/ankle_angle_l/speed	/jointset/subtalar_l/subtalar_angle_l/value	/jointset/subtalar_l/subtalar_angle_l/speed	/jointset/mtp_l/mtp_angle_l/value	/jointset/mtp_l/mtp_angle_l/speed	/jointset/back/lumbar_extension/value	/jointset/back/lumbar_extension/speed	/jointset/back/lumbar_bending/value	/jointset/back/lumbar_bending/speed	/jointset/back/lumbar_rotation/value	/jointset/back/lumbar_rotation/speed	/forceset/glut_med1_r/activation	/forceset/glut_med1_r/fiber_length	/forceset/glut_med2_r/activation	/forceset/glut_med2_r/fiber_length	/forceset/glut_med3_r/activation	/forceset/glut_med3_r/fiber_length	/forceset/bifemlh_r/activation	/forceset/bifemlh_r/fiber_length	/forceset/bifemsh_r/activation	/forceset/bifemsh_r/fiber_length	/forceset/sar_r/activation	/forceset/sar_r/fiber_length	/forceset/add_mag2_r/activation	/forceset/add_mag2_r/fiber_length	/forceset/tfl_r/activation	/forceset/tfl_r/fiber_length	/forceset/pect_r/activation	/forceset/pect_r/fiber_length	/forceset/grac_r/activation	/forceset/grac_r/fiber_length	/forceset/glut_max1_r/activation	/forceset/glut_max1_r/fiber_length	/forceset/glut_max2_r/activation	/forceset/glut_max2_r/fiber_length	/forceset/glut_max3_r/activation	/forceset/glut_max3_r/fiber_length	/forceset/iliacus_r/activation	/forceset/iliacus_r/fiber_length	/forceset/psoas_r/activation	/forceset/psoas_r/fiber_length	/forceset/quad_fem_r/activation	/forceset/quad_fem_r/fiber_length	/forceset/gem_r/activation	/forceset/gem_r/fiber_length	/forceset/peri_r/activation	/forceset/peri_r/fiber_length	/forceset/rect_fem_r/activation	/forceset/rect_fem_r/fiber_length	/forceset/vas_int_r/activation	/forceset/vas_int_r/fiber_length	/forceset/med_gas_r/activation	/forceset/med_gas_r/fiber_length	/forceset/lat_gas_r/activation	/forceset/lat_gas_r/fiber_length	/forceset/soleus_r/activation	/forceset/soleus_r/fiber_length	/forceset/tib_post_r/activation	/forceset/tib_post_r/fiber_length	/forceset/flex_dig_r/activation	/forceset/flex_dig_r/fiber_length	/forceset/flex_hal_r/activation	/forceset/flex_hal_r/fiber_length	/forceset/tib_ant_r/activation	/forceset/tib_ant_r/fiber_length	/forceset/per_brev_r/activation	/forceset/per_brev_r/fiber_length	/forceset/per_long_r/activation	/forceset/per_long_r/fiber_length	/forceset/per_tert_r/activation	/forceset/per_tert_r/fiber_length	/forceset/ext_dig_r/activation	/forceset/ext_dig_r/fiber_length	/forceset/ext_hal_r/activation	/forceset/ext_hal_r/fiber_length	/forceset/glut_med1_l/activation	/forceset/glut_med1_l/fiber_length	/forceset/glut_med2_l/activation	/forceset/glut_med2_l/fiber_length	/forceset/glut_med3_l/activation	/forceset/glut_med3_l/fiber_length	/forceset/bifemlh_l/activation	/forceset/bifemlh_l/fiber_length	/forceset/bifemsh_l/activation	/forceset/bifemsh_l/fiber_length	/forceset/sar_l/activation	/forceset/sar_l/fiber_length	/forceset/add_mag2_l/activation	/forceset/add_mag2_l/fiber_length	/forceset/tfl_l/activation	/forceset/tfl_l/fiber_length	/forceset/pect_l/activation	/forceset/pect_l/fiber_length	/forceset/grac_l/activation	/forceset/grac_l/fiber_length	/forceset/glut_max1_l/activation	/forceset/glut_max1_l/fiber_length	/forceset/glut_max2_l/activation	/forceset/glut_max2_l/fiber_length	/forceset/glut_max3_l/activation	/forceset/glut_max3_l/fiber_length	/forceset/iliacus_l/activation	/forceset/iliacus_l/fiber_length	/forceset/psoas_l/activation	/forceset/psoas_l/fiber_length	/forceset/quad_fem_l/activation	/forceset/quad_fem_l/fiber_length	/forceset/gem_l/activation	/forceset/gem_l/fiber_length	/forceset/peri_l/activation	/forceset/peri_l/fiber_length	/forceset/rect_fem_l/activation	/forceset/rect_fem_l/fiber_length	/forceset/vas_int_l/activation	/forceset/vas_int_l/fiber_length	/forceset/med_gas_l/activation	/forceset/med_gas_l/fiber_length	/forceset/lat_gas_l/activation	/forceset/lat_gas_l/fiber_length	/forceset/soleus_l/activation	/forceset/soleus_l/fiber_length	/forceset/tib_post_l/activation	/forceset/tib_post_l/fiber_length	/forceset/flex_dig_l/activation	/forceset/flex_dig_l/fiber_length	/forceset/flex_hal_l/activation	/forceset/flex_hal_l/fiber_length	/forceset/tib_ant_l/activation	/forceset/tib_ant_l/fiber_length	/forceset/per_brev_l/activation	/forceset/per_brev_l/fiber_length	/forceset/per_long_l/activation	/forceset/per_long_l/fiber_length	/forceset/per_tert_l/activation	/forceset/per_tert_l/fiber_length	/forceset/ext_dig_l/activation	/forceset/ext_dig_l/fiber_length	/forceset/ext_hal_l/activation	/forceset/ext_hal_l/fiber_length	/forceset/ercspn_r/activation	/forceset/ercspn_r/fiber_length	/forceset/ercspn_l/activation	/forceset/ercspn_l/fiber_length	/forceset/intobl_r/activation	/forceset/intobl_r/fiber_length	/forceset/intobl_l/activation	/forceset/intobl_l/fiber_length	/forceset/extobl_r/activation	/forceset/extobl_r/fiber_length	/forceset/extobl_l/activation	/forceset/extobl_l/fiber_length
      0.00000000	     20.00000000	      0.00000000	      0.00000000	      0.00000000	      0.00000000	      0.00000000	      0.25000000	      0.00000000	    -11.99999999	      0.00000000	      0.00000000	      0.00000000	      0.00000000	      0.00000000	      0.05000270	      0.00000000	      1.67000000	      0.00000000	      0.00000000	      0.00000000	     19.99999998	      0.00000000	     -0.99999986	      0.00000000	      4.99999985	      0.00000000	    -19.99999998	      0.00000000	     11.49999977	      0.00000000	     -0.03000064	      0.00000000	      0.00000000	      0.00000000	    -19.99999998	      0.00000000	     10.00000028	      0.00000000	      4.99999985	      0.00000000	   -119.99999986	      0.00000000	     11.49999977	      0.00000000	     -0.03000064	      0.00000000	      0.00000000	      0.00000000	      0.00000000	      0.00000000	      0.00000000	      0.00000000	      0.00000000	      0.00000000	      0.05000000	      0.04357575	      0.05000000	      0.08362391	      0.05000000	      0.06843766	      0.05000000	      0.10252054	      0.05000000	      0.16214763	      0.05000000	      0.44828157	      0.05000000	      0.08145199	      0.05000000	      0.09433646	      0.05000000	      0.06307802	      0.05000000	      0.30964682	      0.05000000	      0.09016565	      0.05000000	      0.10100256	      0.05000000	      0.11743733	      0.05000000	      0.09220087	      0.05000000	      0.08633896	      0.05000000	      0.05137182	      0.05000000	      0.02799630	      0.05000000	      0.02540625	      0.05000000	      0.09879678	      0.05000000	      0.08124441	      0.05000000	      0.09238399	      0.05000000	      0.06542811	      0.05000000	      0.08505025	      0.05000000	      0.03476839	      0.05000000	      0.03194333	      0.05000000	      0.04040403	      0.05000000	      0.07087162	      0.05000000	      0.04936739	      0.05000000	      0.04999319	      0.05000000	      0.07406410	      0.05000000	      0.08688528	      0.05000000	      0.09462792	      0.05000000	      0.04601551	      0.05000000	      0.07892451	      0.05000000	      0.06037764	      0.05000000	      0.02113236	      0.05000000	      0.12200186	      0.05000000	      0.45496511	      0.05000000	      0.05773534	      0.05000000	      0.13368846	      0.05000000	      0.07288697	      0.05000000	      0.24232005	      0.05000000	      0.06582572	      0.05000000	      0.06497935	      0.05000000	      0.05711646	      0.05000000	      0.11869224	      0.05000000	      0.11219124	      0.05000000	      0.04371493	      0.05000000	      0.02457077	      0.05000000	      0.02266386	      0.05000000	      0.18243637	      0.05000000	      0.13930721	      0.05000000	      0.06594925	      0.05000000	      0.03998752	      0.05000000	      0.08505025	      0.05000000	      0.03476839	      0.05000000	      0.03194333	      0.05000000	      0.04040403	      0.05000000	      0.07087162	      0.05000000	      0.04936739	      0.05000000	      0.04999319	      0.05000000	      0.07406410	      0.05000000	      0.08688528	      0.05000000	      0.09462792	      0.05000000	      0.11943514	      0.05000000	      0.11943514	      0.05000000	      0.09818663	      0.05000000	      0.09818663	      0.05000000	      0.13256617	      0.05000000	      0.13256617
      0.00180228	     20.00000000	      0.00000000	     -0.00000000	     -0.00000000	      0.00000000	      0.00000000	      0.25000000	     -0.00000000	    -11.99898905	      1.11880853	     -0.00062434	     -0.68699579	      0.00061851	      0.68442926	      0.05000327	      0.00062808	      1.66998847	     -0.01281368	     -0.00000381	     -0.00420444	     19.99601027	     -4.41165263	     -1.00199885	     -2.21043082	      4.99138543	     -9.50856809	    -19.99099971	      9.94137875	     11.46818392	    -35.07766007	     -0.00770602	     24.66216460	      0.00000000	      0.00000000	    -19.99999998	      0.00000000	     10.00000028	     -0.00000000	      4.99999985	      0.00000000	   -119.99999986	     -0.00000000	     11.49999977	      0.00000000	     -0.03000064	      0.00000000	     -0.00000000	     -0.00000000	     -0.00123925	     -1.37119098	      0.00107347	      1.18168369	     -0.00053564	     -0.59266028	      0.04872336	      0.04357626	      0.04872336	      0.08362446	      0.04872336	      0.06843787	      0.04872336	      0.10252140	      0.04872336	      0.16214927	      0.04872336	      0.44828557	      0.04872336	      0.08145289	      0.04872336	      0.09433723	      0.04872336	      0.06307911	      0.04872336	      0.30964982	      0.04872336	      0.09016647	      0.04872336	      0.10100335	      0.04872336	      0.11743815	      0.04872336	      0.09220180	      0.04872336	      0.08633983	      0.04872336	      0.05137147	      0.04872336	      0.02799625	      0.04872336	      0.02540642	      0.04872336	      0.09879759	      0.04872336	      0.08124494	      0.04872336	      0.09238446	      0.04872336	      0.06542844	      0.04872336	      0.08505043	      0.04872336	      0.03476857	      0.04872336	      0.03194355	      0.04872336	      0.04040431	      0.04872336	      0.07087277	      0.04872336	      0.04936791	      0.04872336	      0.04999362	      0.04872336	      0.07406543	      0.04872336	      0.08688642	      0.04872336	      0.09462913	      0.04872336	      0.04601593	      0.04872336	      0.07892514	      0.04872336	      0.06037813	      0.04872336	      0.02113321	      0.04872336	      0.12200310	      0.04872336	      0.45496847	      0.04872336	      0.05773626	      0.04872336	      0.13368917	      0.04872336	      0.07288766	      0.04872336	      0.24232253	      0.04872336	      0.06582678	      0.04872336	      0.06498045	      0.04872336	      0.05711754	      0.04872336	      0.11869297	      0.04872336	      0.11219200	      0.04872336	      0.04371532	      0.04872336	      0.02457096	      0.04872336	      0.02266406	      0.04872336	      0.18243711	      0.04872336	      0.13930796	      0.04872336	      0.06594996	      0.04872336	      0.03998802	      0.04872336	      0.08505088	      0.04872336	      0.03476864	      0.04872336	      0.03194360	      0.04872336	      0.04040437	      0.04872336	      0.07087239	      0.04872336	      0.04936778	      0.04872336	      0.04999358	      0.04872336	      0.07406470	      0.04872336	      0.08688608	      0.04872336	      0.09462879	      0.04872336	      0.11943600	      0.04872336	      0.11943618	      0.04872336	      0.09818726	      0.04872336	      0.09818744	      0.04872336	      0.13256697	      0.04872336	      0.13256706
      0.00426263	     20.00000000	      0.00000000	     -0.00000000	     -0.00000000	      0.00000000	     -0.00000000	      0.25000000	     -0.00000000	    -11.99441101	      2.58658458	     -0.00337085	     -1.51703217	      0.00342003	      1.58397933	      0.05000585	      0.00147065	      1.66993506	     -0.03071362	     -0.00002086	     -0.00955149	     19.97802623	    -10.12334002	     -1.01103049	     -5.09753501	      4.95284096	    -21.58953509	    -19.95065454	     22.61077851	     11.32694628	    -78.53235476	      0.09336570	     57.22144493	      0.00000000	     -0.00000000	    -19.99999998	      0.00000000	     10.00000028	      0.00000000	      4.99999985	      0.00000000	   -119.99999986	     -0.00000000	     11.49999977	      0.00000000	     -0.03000064	      0.00000000	     -0.00000000	     -0.00000000	     -0.00684502	     -3.16452986	      0.00580777	      2.62083564	     -0.00296163	     -1.37187485	      0.04703947	      0.04357943	      0.04703947	      0.08362615	      0.04703947	      0.06843578	      0.04703947	      0.10252549	      0.04703947	      0.16215909	      0.04703947	      0.44830361	      0.04703947	      0.08145677	      0.04703947	      0.09434109	      0.04703947	      0.06308644	      0.04703947	      0.30966555	      0.04703947	      0.09016808	      0.04703947	      0.10100440	      0.04703947	      0.11743963	      0.04703947	      0.09220731	      0.04703947	      0.08634464	      0.04703947	      0.05136307	      0.04703947	      0.02799332	      0.04703947	      0.02540686	      0.04703947	      0.09880074	      0.04703947	      0.08124510	      0.04703947	      0.09238471	      0.04703947	      0.06542863	      0.04703947	      0.08504583	      0.04703947	      0.03476880	      0.04703947	      0.03194427	      0.04703947	      0.04040508	      0.04703947	      0.07088166	      0.04703947	      0.04937147	      0.04703947	      0.04999601	      0.04703947	      0.07407976	      0.04703947	      0.08689505	      0.04703947	      0.09463805	      0.04703947	      0.04601781	      0.04703947	      0.07892783	      0.04703947	      0.06038024	      0.04703947	      0.02113710	      0.04703947	      0.12200803	      0.04703947	      0.45497993	      0.04703947	      0.05774027	      0.04703947	      0.13369215	      0.04703947	      0.07289036	      0.04703947	      0.24233220	      0.04703947	      0.06583139	      0.04703947	      0.06498522	      0.04703947	      0.05712226	      0.04703947	      0.11869608	      0.04703947	      0.11219545	      0.04703947	      0.04371691	      0.04703947	      0.02457181	      0.04703947	      0.02266503	      0.04703947	      0.18243960	      0.04703947	      0.13931086	      0.04703947	      0.06595329	      0.04703947	      0.03999042	      0.04703947	      0.08505377	      0.04703947	      0.03476980	      0.04703947	      0.03194489	      0.04703947	      0.04040600	      0.04703947	      0.07087594	      0.04703947	      0.04936963	      0.04703947	      0.04999542	      0.04703947	      0.07406745	      0.04703947	      0.08688985	      0.04703947	      0.09463285	      0.04703947	      0.11943947	      0.04703947	      0.11944172	      0.04703947	      0.09818905	      0.04703947	      0.09819133	      0.04703947	      0.13256973	      0.04703947	      0.13257082
      0.00672298	     20.00000000	      0.00000000	     -0.00000000	     -0.00000000	      0.00000000	      0.00000000	      0.25000000	     -0.00000000	    -11.98636089	      3.93436570	     -0.00791448	     -2.13670172	      0.00836072	      2.42066311	      0.05001048	      0.00228820	      1.66983665	     -0.04944239	     -0.00005018	     -0.01414186	     19.94671397	    -15.21186377	     -1.02686996	     -7.72642700	      4.88657626	    -31.94704891	    -19.88125189	     33.45741871	     11.08926971	   -112.92876939	      0.27206268	     87.56945410	      0.00000000	      0.00000000	    -19.99999998	      0.00000000	     10.00000028	      0.00000000	      4.99999985	      0.00000000	   -119.99999986	     -0.00000000	     11.49999977	      0.00000000	     -0.03000064	      0.00000000	     -0.00000000	     -0.00000000	     -0.01667905	     -4.79898810	      0.01368904	      3.72171322	     -0.00724255	     -2.09828799	      0.04542070	      0.04358727	      0.04542070	      0.08362760	      0.04542070	      0.06842548	      0.04542070	      0.10253318	      0.04542070	      0.16218145	      0.04542070	      0.44833524	      0.04542070	      0.08146315	      0.04542070	      0.09434883	      0.04542070	      0.06310412	      0.04542070	      0.30969723	      0.04542070	      0.09016596	      0.04542070	      0.10099926	      0.04542070	      0.11743656	      0.04542070	      0.09222037	      0.04542070	      0.08635533	      0.04542070	      0.05133763	      0.04542070	      0.02798239	      0.04542070	      0.02540699	      0.04542070	      0.09880511	      0.04542070	      0.08123858	      0.04542070	      0.09237917	      0.04542070	      0.06542468	      0.04542070	      0.08502475	      0.04542070	      0.03476741	      0.04542070	      0.03194487	      0.04542070	      0.04040544	      0.04542070	      0.07090971	      0.04542070	      0.04938172	      0.04542070	      0.05000152	      0.04542070	      0.07415029	      0.04542070	      0.08692195	      0.04542070	      0.09466470	      0.04542070	      0.04602117	      0.04542070	      0.07893224	      0.04542070	      0.06038380	      0.04542070	      0.02114414	      0.04542070	      0.12201552	      0.04542070	      0.45499485	      0.04542070	      0.05774709	      0.04542070	      0.13369698	      0.04542070	      0.07289429	      0.04542070	      0.24234650	      0.04542070	      0.06583909	      0.04542070	      0.06499315	      0.04542070	      0.05713020	      0.04542070	      0.11870108	      0.04542070	      0.11220149	      0.04542070	      0.04371938	      0.04542070	      0.02457333	      0.04542070	      0.02266684	      0.04542070	      0.18244280	      0.04542070	      0.13931511	      0.04542070	      0.06595948	      0.04542070	      0.03999493	      0.04542070	      0.08505904	      0.04542070	      0.03477200	      0.04542070	      0.03194734	      0.04542070	      0.04040908	      0.04542070	      0.07088242	      0.04542070	      0.04937306	      0.04542070	      0.04999890	      0.04542070	      0.07407228	      0.04542070	      0.08689685	      0.04542070	      0.09464036	      0.04542070	      0.11944503	      0.04542070	      0.11945273	      0.04542070	      0.09819013	      0.04542070	      0.09819872	      0.04542070	      0.13257281	      0.04542070	      0.13257685
